<?xml version="1.0" encoding="UTF-8" standalone="no"?>
<!DOCTYPE svg PUBLIC "-//W3C//DTD SVG 1.1//EN" "http://www.w3.org/Graphics/SVG/1.1/DTD/svg11.dtd">
<svg width="100%" height="100%" viewBox="0 0 101 95" version="1.1" xmlns="http://www.w3.org/2000/svg" xmlns:xlink="http://www.w3.org/1999/xlink" xml:space="preserve" xmlns:serif="http://www.serif.com/" style="fill-rule:evenodd;clip-rule:evenodd;">
    <g id="Artboard1" transform="matrix(0.812585,0,0,0.882068,0.541333,-287.673)">
        <rect x="-0.666" y="326.135" width="123.071" height="107.654" style="fill:none;"/>
        <clipPath id="_clip1">
            <rect x="-0.666" y="326.135" width="123.071" height="107.654"/>
        </clipPath>
        <g clip-path="url(#_clip1)">
            <g transform="matrix(0.247024,0,0,0.247024,-37.0562,306.571)">
                <g id="Layer-1" serif:id="Layer 1">
                    <g id="g28363">
                        <path id="path28365" d="M458.6,453.58C457.14,459.14 459.65,465.46 461.96,470.79C464.28,476.12 464.76,470.2 467.86,474.89C470.96,479.58 471.54,486.81 474.36,489.55C477.18,492.29 476.71,483.76 479.14,485.87C481.58,487.98 483.2,493.18 484.1,498C485,502.81 481.32,505.17 482.75,505.14C484.18,505.1 485.99,499.91 489.81,497.85C493.64,495.79 497.96,498.46 498.04,496.89C498.11,495.32 493.43,495.35 490.12,491.57C486.81,487.78 485.61,486.18 484.81,481.77C484.01,477.36 488.74,476.86 486.91,473.92C485.09,470.98 482.28,476.36 477.5,470.02C472.72,463.67 472.53,452.65 467.8,448.54C463.08,444.43 460.06,448.02 458.6,453.58Z" style="fill:rgb(26,26,26);stroke:black;stroke-width:1px;"/>
                        <path id="path28367" d="M550.75,335.13C554.45,330.73 561.07,329.14 566.76,327.96C572.45,326.79 567.89,330.59 573.51,330.42C579.13,330.25 585.37,326.57 589.23,327.29C593.1,328.02 585.85,332.55 588.98,333.32C592.1,334.1 597.29,332.43 601.75,330.39C606.2,328.35 606.01,323.98 606.8,325.17C607.6,326.36 604.4,330.83 604.92,335.14C605.43,339.46 610.11,341.45 608.87,342.42C607.63,343.39 604.95,339.54 599.96,339.02C594.96,338.49 592.96,338.43 588.89,340.32C584.82,342.2 587.14,346.36 583.68,346.56C580.23,346.76 583.01,341.36 575.07,341.11C567.13,340.86 558.01,347.04 551.93,345.55C545.85,344.05 547.04,339.52 550.75,335.13Z" style="fill:rgb(26,26,26);stroke:black;stroke-width:1px;"/>
                        <path id="path28369" d="M411.54,441.69C408.47,446.55 408.95,453.34 409.54,459.12C410.14,464.9 412.39,459.4 413.92,464.81C415.46,470.22 413.83,477.28 415.69,480.75C417.55,484.22 419.68,475.94 421.36,478.68C423.04,481.43 423.01,486.88 422.42,491.75C421.82,496.61 417.6,497.74 418.97,498.14C420.34,498.54 423.64,494.14 427.91,493.33C432.17,492.52 435.49,496.38 436.03,494.9C436.58,493.43 432.11,492.04 430.1,487.43C428.09,482.83 427.43,480.94 428,476.49C428.57,472.04 433.23,473 432.38,469.64C431.53,466.29 427.22,470.57 424.58,463.08C421.95,455.59 425.1,445.03 421.84,439.68C418.57,434.33 414.61,436.83 411.54,441.69Z" style="fill:rgb(26,26,26);stroke:black;stroke-width:1px;"/>
                        <path id="path28371" d="M522.73,287.66C524.08,282.07 529.28,277.7 533.85,274.1C538.41,270.5 536.03,275.94 540.98,273.28C545.94,270.62 549.87,264.54 553.66,263.46C557.44,262.38 552.98,269.67 556.12,268.96C559.26,268.26 563.16,264.45 566.23,260.63C569.31,256.82 567.18,253 568.42,253.7C569.66,254.41 568.81,259.84 571.19,263.47C573.58,267.09 578.66,266.79 577.98,268.21C577.3,269.63 573.19,267.39 568.49,269.15C563.78,270.91 561.96,271.75 559.17,275.26C556.37,278.76 560.3,281.45 557.3,283.17C554.3,284.89 554.37,278.82 547.16,282.14C539.95,285.46 534.56,295.08 528.45,296.46C522.34,297.84 521.38,293.25 522.73,287.66Z" style="fill:rgb(26,26,26);stroke:black;stroke-width:1px;"/>
                        <path id="path28373" d="M374.69,138.79C378.33,134.34 378.67,127.54 378.78,121.73C378.88,115.93 375.99,121.11 375.12,115.55C374.25,110 376.72,103.19 375.29,99.518C373.86,95.85 370.75,103.82 369.41,100.88C368.08,97.951 368.76,92.546 369.94,87.79C371.12,83.034 375.45,82.419 374.14,81.859C372.82,81.299 369.02,85.263 364.69,85.55C360.35,85.837 357.53,81.61 356.81,83.008C356.08,84.406 360.36,86.328 361.79,91.14C363.23,95.953 363.66,97.912 362.56,102.26C361.45,106.6 356.94,105.09 357.38,108.53C357.82,111.96 362.61,108.23 364.32,115.98C366.03,123.74 361.63,133.84 364.22,139.54C366.81,145.25 371.05,143.24 374.69,138.79Z" style="fill:rgb(26,26,26);stroke:black;stroke-width:1px;"/>
                        <path id="path28375" d="M210.97,347.23C207.02,351.4 200.32,352.6 194.58,353.45C188.83,354.29 193.6,350.76 187.98,350.6C182.36,350.44 175.91,353.76 172.1,352.81C168.28,351.86 175.78,347.76 172.7,346.81C169.63,345.85 164.35,347.22 159.78,348.99C155.22,350.77 155.16,355.14 154.43,353.91C153.71,352.68 157.16,348.4 156.89,344.06C156.63,339.73 152.08,337.47 153.37,336.57C154.67,335.68 157.12,339.67 162.07,340.49C167.03,341.3 169.03,341.48 173.2,339.83C177.37,338.18 175.3,333.9 178.76,333.9C182.22,333.91 179.13,339.13 187.04,339.84C194.95,340.55 204.41,334.91 210.39,336.75C216.38,338.6 214.93,343.05 210.97,347.23Z" style="fill:rgb(26,26,26);stroke:black;stroke-width:1px;"/>
                        <g id="g28377" transform="matrix(-0.13049,-0.99145,0.99145,-0.13049,162.04,676.9)">
                            <path id="path28379" d="M231.01,285.39C202.56,264.43 206.29,248.07 206.29,248.07C206.29,248.07 223.26,166.48 268.17,118.17C308.14,75.193 345.83,60.351 399.09,60.687C459.93,61.072 510.55,90.436 509.07,91.07C510.33,94.439 473.88,149.97 424.05,209.09C371.36,271.59 304.93,335.75 304.68,335.24C304.68,335.24 289.61,329.59 277.28,317.32C262.52,302.61 245.3,295.92 231.01,285.39Z" style="fill:url(#_Radial2);stroke:black;stroke-width:1px;"/>
                            <path id="path28381" d="M306.56,336.2C306.56,336.2 319.61,360.57 336.26,378.17C359.8,403.03 362.15,408.21 368.45,408.56C396.71,410.16 428.09,396.63 458.23,377.52C503.25,348.99 535.79,291.28 543.93,231.3C548.18,200 545.19,172.72 535.99,143.12C525.65,109.88 510.71,93.404 510.71,93.404C510.71,93.404 478.34,147.64 427.01,208.344C375.67,269.044 306.56,336.204 306.56,336.204L306.56,336.2Z" style="fill:url(#_Radial3);stroke:black;stroke-width:1px;"/>
                        </g>
                        <path id="path28383" d="M502.54,446.39C508.7,453.11 512.54,456.88 514.38,459.4C516.22,461.92 522.78,466.58 525.81,466.68C528.84,466.79 535.53,469.93 540.42,467.02C545.31,464.12 554.24,459.43 557.17,458.79C560.1,458.15 566.4,460.59 574.02,457.07C577.91,455.28 590.97,440.14 591.5,433.42C592.28,423.72 586.98,416.69 589.81,414.81C593.29,412.49 596.26,404.67 595.38,398C594.5,391.34 592.74,387.18 587.05,382.16C581.37,377.13 577.71,375.62 572.6,369.51C569.1,365.32 556.32,363.63 554.53,365.63C548.4,372.46 548.71,373.51 545.19,379.24C541.68,384.98 535.71,398.82 531.86,403.85C528,408.88 518.07,420.24 512.59,423.47C504.89,428 501.24,435.17 501.07,437.7C500.9,440.24 502.2,445.68 502.54,446.39Z" style="fill:rgb(26,26,26);stroke:black;stroke-width:1px;"/>
                        <path id="path28385" d="M512.24,509.08C511.41,514.64 513.55,513.4 515.88,513.29C518.2,513.18 519.82,513.65 521.53,508.64C523.24,503.64 519.04,500.65 522.72,493.27C526.41,485.88 527.84,486.99 536.28,479.11C544.71,471.22 556.35,463.03 556.48,461.75C556.61,460.46 546.1,466.63 536.78,473.96C527.46,481.28 525.34,482.27 519.2,491.05C513.06,499.83 513.07,503.53 512.24,509.08Z" style="fill:rgb(26,26,26);stroke:black;stroke-width:1px;"/>
                        <path id="path28387" d="M591.61,418.41C592.22,419.68 597.55,415.61 604.56,409.86C611.58,404.12 610.93,399.37 619.66,395.41C628.4,391.45 633.36,397.01 639.49,394.04C645.62,391.07 645.28,386.12 644.18,383.54C643.08,380.97 642.53,381.79 635.09,383.75C627.65,385.71 622.65,386.12 614.41,391.38C606.18,396.64 607.84,398.03 602.14,404.78C596.44,411.54 591.01,417.14 591.61,418.41Z" style="fill:rgb(26,26,26);stroke:black;stroke-width:1px;"/>
                        <path id="path28389" d="M425.42,381.4C427.07,378.45 431.04,371.03 431.97,369.41C433.76,366.27 437.08,360.86 438.44,359.62C440.7,357.57 445.53,349.58 445.73,347.23C445.94,344.87 444.58,340.13 442.4,340.36C437.62,340.87 431.3,344.17 429.62,345.17C427.94,346.17 424.08,349.84 421.45,354.25C420.06,356.59 418.83,361.84 418.21,365.03C417.6,368.21 416.79,375.83 418.01,377.22C419.23,378.61 424.13,383.71 425.42,381.4Z" style="fill:rgb(230,230,230);stroke:rgb(234,234,234);stroke-width:1px;"/>
                        <g id="g28391" transform="matrix(-0.13049,-0.99145,0.99145,-0.13049,162.04,676.9)">
                            <g id="g28393">
                                <g id="g28395">
                                    <path id="path28397" d="M250.8,175.43C250.25,183.05 252.25,189.22 258.78,188.49C265.31,187.77 276.38,180.15 276.92,172.53C277.47,164.91 267.49,157.29 260.96,158.01C254.43,158.74 251.34,167.81 250.8,175.43Z" style="fill:url(#_Radial4);stroke:black;stroke-width:1px;"/>
                                    <path id="path28399" d="M339.34,175.43C334.68,183.25 346.13,191.04 351.38,194.71C360.31,200.95 370.56,202.32 377.08,197.2C381.41,193.81 385.13,190.68 385.79,180.51C386.2,174.15 385.41,160.61 374.18,156.56C370.76,155.33 351.19,155.53 339.34,175.43Z" style="fill:url(#_Radial5);stroke:black;stroke-width:1px;"/>
                                    <path id="path28401" d="M360.75,76.71C368.66,87.007 383.65,92.817 399.5,86.778C407.12,83.874 410.75,83.221 413.22,78.487C415.68,73.754 411.59,70.509 407.27,68.006C400.99,64.371 383.72,65.083 371.84,68.462C364.74,70.48 358.37,73.611 360.75,76.71Z" style="fill:url(#_Radial6);stroke:black;stroke-width:1px;"/>
                                    <path id="path28403" d="M528.73,184.87C537.42,191.65 542.54,204.81 537.86,218.98C535.61,225.8 535.14,229.03 531.27,231.32C527.39,233.6 524.62,230.05 522.46,226.28C519.32,220.79 519.56,205.47 522.12,194.87C523.65,188.54 526.11,182.83 528.73,184.87Z" style="fill:url(#_Radial7);stroke:black;stroke-width:0.86px;"/>
                                    <path id="path28405" d="M474.41,259.69C476.09,251.02 463.62,247.06 457.87,245.16C448.09,241.92 438.66,243.62 434.51,250.3C431.75,254.73 429.45,258.74 432.02,268.44C433.62,274.5 438.5,286.93 449.63,287.46C453.01,287.62 470.15,281.74 474.41,259.69Z" style="fill:url(#_Radial8);stroke:black;stroke-width:0.95px;"/>
                                    <path id="path28407" d="M457.95,357.53C462.29,351.85 464.03,345.89 458.89,342.82C453.75,339.76 441.73,339.57 437.38,345.25C433.04,350.93 436.38,362.47 441.52,365.54C446.66,368.61 453.61,363.21 457.95,357.53Z" style="fill:url(#_Radial9);stroke:black;stroke-width:0.93px;"/>
                                </g>
                                <path id="path28409" d="M297.04,309.45C297.64,313.16 300.48,320.72 298.94,323.8C297.4,326.88 294.08,325.52 294.59,327.06C295.1,328.6 303.11,331.92 304.39,332.43C305.67,332.95 310.42,326.76 311.7,325.73C312.99,324.7 320.86,317.39 328.09,310.06C335.33,302.73 340.09,297.5 340.09,297.5C340.09,297.5 335.87,294.76 333.09,293.09C328.64,290.43 325.69,288.3 323.63,287.27C321.58,286.24 318.71,283.73 314.78,281.08C310.44,278.15 306.03,275.61 301.41,279.46C296.79,283.31 298.36,291.35 298.36,296.22C298.36,301.1 296.21,304.28 297.04,309.45Z" style="fill:url(#_Radial10);stroke:black;stroke-width:1px;"/>
                                <path id="path28411" d="M332.41,344.23C328.7,343.62 322.23,340.21 319.15,341.74C316.06,343.27 316.87,347.41 315.33,346.89C313.79,346.38 309.95,338.09 309.45,336.81C308.94,335.52 315.14,330.79 316.17,329.51C317.2,328.23 323.99,320.93 331.35,313.72C338.7,306.51 343.67,301.76 343.67,301.76C343.67,301.76 347.21,305.44 348.87,308.23C351.52,312.68 353.65,315.65 354.67,317.7C355.69,319.76 358.19,322.64 360.83,326.57C363.75,330.93 366.27,335.35 362.41,339.95C358.54,344.56 350.51,342.96 345.64,342.95C340.76,342.93 337.57,345.07 332.41,344.23Z" style="fill:url(#_Radial11);stroke:black;stroke-width:1px;"/>
                            </g>
                        </g>
                        <path id="path28413" d="M497.1,286.02C494.74,289.74 488.54,296.2 487.45,297.72C484.89,301.31 480.92,304.43 478.76,306.18C476.4,308.1 470.35,315.12 468.08,315.8C465.82,316.47 460.9,316.09 460.69,313.91C460.23,309.11 462.2,302.26 462.85,300.42C463.49,298.57 466.32,294.05 470.11,290.6C472.12,288.77 477.02,286.51 480.02,285.27C483.02,284.03 490.32,281.72 491.92,282.63C493.53,283.55 498.52,283.78 497.1,286.02Z" style="fill:rgb(230,230,230);stroke:rgb(234,234,234);stroke-width:1px;"/>
                        <path id="path28415" d="M571.47,420.33C574.16,417.12 580.94,409.49 579.01,406.63C577.07,403.78 571.67,396.19 568.37,398.7C565.07,401.21 563.04,407.44 564.42,414C565.8,420.56 568.79,423.54 571.47,420.33Z" style="fill:rgb(230,230,230);stroke:black;stroke-width:1px;"/>
                        <path id="path28417" d="M577.89,443.57C583.88,436.18 582.17,422.81 581.29,423.96C580.4,425.12 576.41,435.77 573.15,439.28C568.84,443.92 561.43,449.22 560.07,450.7C558.71,452.17 571.98,450.85 577.89,443.57Z" style="fill:rgb(230,230,230);stroke:black;stroke-width:1px;"/>
                        <path id="path28419" d="M557.1,441.54C554.24,444.59 547.49,452.24 544.42,450.67C541.35,449.1 533.16,444.66 535.25,441.08C537.34,437.5 543.28,434.73 549.96,435.3C556.64,435.88 559.95,438.48 557.1,441.54Z" style="fill:rgb(230,230,230);stroke:black;stroke-width:1px;"/>
                        <path id="path28421" d="M457.43,330.43C452.14,347.43 439.92,363.93 433.07,375.32C418.48,420.1 406.51,418.3 404.97,437.13C404.1,447.67 419.36,461.06 424.6,463.04C432.96,466.2 464.71,463.95 483.43,459.19C500.51,454.85 496.74,448.22 498.43,440.29C499.79,433.88 500.92,429.33 507.99,423.74C519.2,414.86 525.97,409.68 532.91,398.03C543.05,381.03 542.45,377.52 551.03,365.8C559.62,354.08 569.55,355.17 568.53,349.02C566.06,334.12 563.99,320.03 555.67,299.66C554.88,289.2 553.93,280.84 547.6,275.64C542.87,271.76 528.75,266.09 521.35,271.52C499.76,287.36 503.11,285.45 487.63,303.34C479.01,313.3 471.24,318.94 457.43,330.43Z" style="fill:rgb(26,26,26);stroke:black;stroke-width:1px;"/>
                        <path id="path28423" d="M532.85,393.18C542.46,377.07 540.84,375.5 548.97,364.39C557.11,353.27 566.52,354.31 565.56,348.48C563.22,334.36 561.26,321 553.37,301.69C552.62,291.78 551.72,283.85 545.72,278.93C541.24,275.25 527.85,269.87 520.84,275.02C500.38,290.03 503.55,288.23 488.88,305.18C480.71,314.63 474.22,319.53 461.13,330.43" style="fill:url(#_Radial12);"/>
                        <path id="path28425" d="M458.17,334.46C453.42,350.34 442.46,365.76 436.32,376.41C423.23,418.26 412.5,416.57 411.11,434.18C410.33,444.02 424.02,456.54 428.72,458.39C436.22,461.34 464.7,459.24 481.5,454.8C496.82,450.74 493.44,444.54 494.95,437.13C496.17,431.14 497.19,426.89 503.52,421.66C513.58,413.36 519.65,408.52 525.88,397.64" style="fill:url(#_Radial13);"/>
                        <path id="path28427" d="M445.51,450.59C448.1,453.69 453.33,457.22 463.96,457.91C474.59,458.6 483.95,453.09 491.2,451.94C495.67,451.22 494.54,443.11 496.26,435.94C497.98,428.77 501.72,427.77 499.87,425.03C498.02,422.3 488.79,426.09 484.38,423.92C479.97,421.75 476.67,416.93 471.33,418.99C463.92,421.85 463.08,425.8 463.33,429.3C463.6,433.18 460.5,438.77 455.21,440.38C449.92,441.99 442.93,447.49 445.51,450.59Z" style="fill:rgb(236,236,236);stroke:rgb(204,204,204);stroke-width:1px;"/>
                        <path id="path28429" d="M542.34,358.27C542.49,354.85 542.81,351.03 540.52,348.17C538.77,345.82 536.21,343.98 535.34,341.07C534.07,338.8 531.9,334.92 533.05,332.18C534.04,328.94 536.16,327.14 539.29,325.6C542.21,323.91 545.14,321.73 546.22,318.38C547.28,315.47 545.98,310.34 546.86,307.41C548.19,304.92 551.81,308.85 552.98,311.05C556.02,316.1 557.64,323.96 558.63,329.69C559.42,335.17 560.48,337.61 561.73,343.01C561.94,345.35 563.25,348.29 561.46,350.29C559.01,352.91 554.78,352.04 552.29,354.61C549.71,356.95 548.03,360.07 545.69,362.63C543.08,363.59 542.9,359.88 542.34,358.27Z" style="fill:rgb(204,204,204);stroke:black;stroke-width:1px;"/>
                    </g>
                </g>
            </g>
        </g>
    </g>
    <defs>
        <radialGradient id="_Radial2" cx="0" cy="0" r="1" gradientUnits="userSpaceOnUse" gradientTransform="matrix(116.344,501.936,-554.932,128.623,361.048,201.814)"><stop offset="0" style="stop-color:rgb(255,150,150);stop-opacity:1"/><stop offset="0.33" style="stop-color:rgb(162,0,0);stop-opacity:1"/><stop offset="1" style="stop-color:rgb(105,0,0);stop-opacity:1"/></radialGradient>
        <radialGradient id="_Radial3" cx="0" cy="0" r="1" gradientUnits="userSpaceOnUse" gradientTransform="matrix(116.344,501.936,-554.932,128.623,361.048,201.814)"><stop offset="0" style="stop-color:rgb(255,150,150);stop-opacity:1"/><stop offset="0.33" style="stop-color:rgb(162,0,0);stop-opacity:1"/><stop offset="1" style="stop-color:rgb(105,0,0);stop-opacity:1"/></radialGradient>
        <radialGradient id="_Radial4" cx="0" cy="0" r="1" gradientUnits="userSpaceOnUse" gradientTransform="matrix(79.2857,317.23,-356.721,89.1548,395.142,215.979)"><stop offset="0" style="stop-color:rgb(64,64,64);stop-opacity:1"/><stop offset="0.13" style="stop-color:rgb(32,32,32);stop-opacity:1"/><stop offset="1" style="stop-color:black;stop-opacity:1"/></radialGradient>
        <radialGradient id="_Radial5" cx="0" cy="0" r="1" gradientUnits="userSpaceOnUse" gradientTransform="matrix(23.5234,90.5938,-98.4905,25.574,362.36,177.375)"><stop offset="0" style="stop-color:rgb(64,64,64);stop-opacity:1"/><stop offset="0.13" style="stop-color:rgb(32,32,32);stop-opacity:1"/><stop offset="1" style="stop-color:black;stop-opacity:1"/></radialGradient>
        <radialGradient id="_Radial6" cx="0" cy="0" r="1" gradientUnits="userSpaceOnUse" gradientTransform="matrix(79.2857,317.23,-356.721,89.1548,395.142,215.979)"><stop offset="0" style="stop-color:rgb(64,64,64);stop-opacity:1"/><stop offset="0.13" style="stop-color:rgb(32,32,32);stop-opacity:1"/><stop offset="1" style="stop-color:black;stop-opacity:1"/></radialGradient>
        <radialGradient id="_Radial7" cx="0" cy="0" r="1" gradientUnits="userSpaceOnUse" gradientTransform="matrix(79.2857,317.23,-356.721,89.1548,395.142,215.979)"><stop offset="0" style="stop-color:rgb(64,64,64);stop-opacity:1"/><stop offset="0.13" style="stop-color:rgb(32,32,32);stop-opacity:1"/><stop offset="1" style="stop-color:black;stop-opacity:1"/></radialGradient>
        <radialGradient id="_Radial8" cx="0" cy="0" r="1" gradientUnits="userSpaceOnUse" gradientTransform="matrix(79.2857,317.23,-356.721,89.1548,395.142,215.979)"><stop offset="0" style="stop-color:rgb(64,64,64);stop-opacity:1"/><stop offset="0.13" style="stop-color:rgb(32,32,32);stop-opacity:1"/><stop offset="1" style="stop-color:black;stop-opacity:1"/></radialGradient>
        <radialGradient id="_Radial9" cx="0" cy="0" r="1" gradientUnits="userSpaceOnUse" gradientTransform="matrix(79.2857,317.23,-356.721,89.1548,395.142,215.979)"><stop offset="0" style="stop-color:rgb(64,64,64);stop-opacity:1"/><stop offset="0.13" style="stop-color:rgb(32,32,32);stop-opacity:1"/><stop offset="1" style="stop-color:black;stop-opacity:1"/></radialGradient>
        <radialGradient id="_Radial10" cx="0" cy="0" r="1" gradientUnits="userSpaceOnUse" gradientTransform="matrix(79.2857,317.23,-356.721,89.1548,395.142,215.979)"><stop offset="0" style="stop-color:rgb(64,64,64);stop-opacity:1"/><stop offset="0.13" style="stop-color:rgb(32,32,32);stop-opacity:1"/><stop offset="1" style="stop-color:black;stop-opacity:1"/></radialGradient>
        <radialGradient id="_Radial11" cx="0" cy="0" r="1" gradientUnits="userSpaceOnUse" gradientTransform="matrix(79.2857,317.23,-356.721,89.1548,395.142,215.979)"><stop offset="0" style="stop-color:rgb(64,64,64);stop-opacity:1"/><stop offset="0.13" style="stop-color:rgb(32,32,32);stop-opacity:1"/><stop offset="1" style="stop-color:black;stop-opacity:1"/></radialGradient>
        <radialGradient id="_Radial12" cx="0" cy="0" r="1" gradientUnits="userSpaceOnUse" gradientTransform="matrix(-24.6459,14.6339,-26.7745,-45.094,522.092,323.103)"><stop offset="0" style="stop-color:rgb(15,15,15);stop-opacity:1"/><stop offset="1" style="stop-color:black;stop-opacity:0"/></radialGradient>
        <radialGradient id="_Radial13" cx="0" cy="0" r="1" gradientUnits="userSpaceOnUse" gradientTransform="matrix(35.9153,34.945,-42.8874,45.1301,463.918,424.819)"><stop offset="0" style="stop-color:rgb(122,122,122);stop-opacity:1"/><stop offset="0" style="stop-color:rgb(74,74,74);stop-opacity:1"/><stop offset="1" style="stop-color:rgb(26,26,26);stop-opacity:0"/></radialGradient>
    </defs>
</svg>
